# xmcd
#
# Track frame offsets:
#	183
#	13370
#	25250
#	36605
#	46928
#	58878
#	69470
#	81530
#	95125
#	104115
#	117538
#	126285
#	136065
#	145970
#	155615
#	167298
#	178180
#	190430
#
# Disc length: 2702 seconds
#
# Revision: 1
# Processed by: cddbd v1.4PL0 Copyright (c) Steve Scherf et al.
# Submitted via: audiograbber 1.80
#
DISCID=190a8c12
DTITLE=Les Surfs - T'en va pas comme ca
DYEAR=1900
DGENRE=
TTITLE0=Si j'avais un marteau
TTITLE1=Scandale dans la famille
TTITLE2=Pour une rose
TTITLE3=Adieu chagrin
TTITLE4=A présent tu peux t'en aller
TTITLE5=Ca n'a pas d'importance
TTITLE6=It's all right
TTITLE7=Reviens Sloopy
TTITLE8=Sacré Josh
TTITLE9=T'en va pas comme ça
TTITLE10=Toi, tu m'as tout donné
TTITLE11=Avec toije ne sais plus
TTITLE12=Shoop shoop...va l'embrasser
TTITLE13=Tu pars et tu pleures
TTITLE14=Reviens vite et oublie
TTITLE15=If you please
TTITLE16=Alors
TTITLE17=Reste avec moi
EXTD=
EXTT0=
EXTT1=
EXTT2=
EXTT3=
EXTT4=
EXTT5=
EXTT6=
EXTT7=
EXTT8=
EXTT9=
EXTT10=
EXTT11=
EXTT12=
EXTT13=
EXTT14=
EXTT15=
EXTT16=
EXTT17=
PLAYORDER=
